<svg xmlns="http://www.w3.org/2000/svg" viewBox="0 0 533.96 128.03"><defs><style>.cls-1{fill:#eaa736;}.cls-2{fill:#fff;}</style></defs><g id="Livello_2" data-name="Livello 2"><g id="Livello_1-2" data-name="Livello 1"><rect class="cls-1" width="126.84" height="126.84"/><path class="cls-1" d="M159.07,48.23V7.46h4V44.28h17.65v3.95Z"/><path class="cls-1" d="M191.31,39.11V23.89H195V39.11a6.74,6.74,0,0,0,6.69,6.68,7.81,7.81,0,0,0,5.53-2.25,6.86,6.86,0,0,0,2.37-5.06V23.89h3.66V48.23h-3.66V44.58h-.29l-.33.53a11.44,11.44,0,0,1-1,1.16,12.68,12.68,0,0,1-1.65,1.48A9.19,9.19,0,0,1,204,48.93a8.42,8.42,0,0,1-3,.52,9.18,9.18,0,0,1-6.83-3A10.18,10.18,0,0,1,191.31,39.11Z"/><path class="cls-1" d="M226.42,13.39a2.3,2.3,0,0,1-.76-1.68,2.33,2.33,0,0,1,.76-1.68,2.32,2.32,0,0,1,1.68-.75,2.36,2.36,0,0,1,1.68.75,2.36,2.36,0,0,1,.75,1.68,2.32,2.32,0,0,1-.75,1.68,2.33,2.33,0,0,1-1.68.76A2.3,2.3,0,0,1,226.42,13.39Zm-.17,34.84V23.89h3.66V48.23Z"/><path class="cls-1" d="M239.33,44.28l2.74-2.44c.08.1.19.24.35.42s.49.49,1,1a12.68,12.68,0,0,0,1.52,1.2,8.58,8.58,0,0,0,1.92,1,6.26,6.26,0,0,0,2.24.43,6.46,6.46,0,0,0,4.19-1.27,3.77,3.77,0,0,0,1.57-3,2.49,2.49,0,0,0-.77-1.82,6,6,0,0,0-2-1.31c-.83-.35-1.73-.68-2.72-1s-2-.7-3-1.11a17.52,17.52,0,0,1-2.73-1.43,6.26,6.26,0,0,1-2-2.14,6,6,0,0,1-.77-3.06,6.27,6.27,0,0,1,2.43-4.92,9.6,9.6,0,0,1,6.39-2.06,11.23,11.23,0,0,1,3.14.43,9,9,0,0,1,2.49,1.07,16.75,16.75,0,0,1,1.76,1.26,7.86,7.86,0,0,1,1.08,1l.36.45-2.73,2.43-.32-.32a8.49,8.49,0,0,0-.84-.73,11,11,0,0,0-1.34-.92,9,9,0,0,0-1.66-.73,6.08,6.08,0,0,0-1.94-.33,5.94,5.94,0,0,0-3.64.94,2.87,2.87,0,0,0-1.23,2.39,2.57,2.57,0,0,0,.77,1.83,6.13,6.13,0,0,0,2,1.3c.82.35,1.73.69,2.72,1s2,.7,3,1.12A16.79,16.79,0,0,1,256,36.34a6.23,6.23,0,0,1,2,2.14,6,6,0,0,1,.78,3.06,7.16,7.16,0,0,1-2.65,5.62,10.4,10.4,0,0,1-7.07,2.29,11.11,11.11,0,0,1-3.45-.54,10.13,10.13,0,0,1-2.76-1.29,18,18,0,0,1-1.93-1.51,9,9,0,0,1-1.22-1.3Z"/><path class="cls-1" d="M267,41.54a7.05,7.05,0,0,1,2.76-5.64,11.53,11.53,0,0,1,7.58-2.29,28.62,28.62,0,0,1,3.73.24,24.05,24.05,0,0,1,2.69.47l.89.21V33A6.76,6.76,0,0,0,278,26.33a7.13,7.13,0,0,0-2,.31,6.89,6.89,0,0,0-1.7.76c-.47.3-.89.6-1.27.89a7.7,7.7,0,0,0-.83.75l-.27.32-2.73-2.14.34-.49a12.47,12.47,0,0,1,1-1.1,9.21,9.21,0,0,1,4.22-2.46,10.66,10.66,0,0,1,3.25-.49A10.24,10.24,0,0,1,288.3,33V48.23h-3.65V44.58h-.3c-.08.13-.19.31-.34.53a13,13,0,0,1-1,1.16,10.52,10.52,0,0,1-1.65,1.48,9.28,9.28,0,0,1-2.3,1.18,8.42,8.42,0,0,1-3,.52,9.36,9.36,0,0,1-6.56-2.32A7.26,7.26,0,0,1,267,41.54Zm3.95,0a3.75,3.75,0,0,0,1.47,3.08,6.84,6.84,0,0,0,4.33,1.17,7.77,7.77,0,0,0,5.52-2.25,6.83,6.83,0,0,0,2.38-5.06v-.59a43,43,0,0,0-7.31-.62,8.15,8.15,0,0,0-4.83,1.15A3.71,3.71,0,0,0,271,41.54Z"/><path class="cls-1" d="M317.49,48.23V7.46h9.42a16.69,16.69,0,0,1,11.63,4.07,12.92,12.92,0,0,1,4.51,9.93,12.88,12.88,0,0,1-4.51,9.92q-4.5,4.08-11.63,4.07h-5.47V48.23Zm3.95-16.73h5.47a12.48,12.48,0,0,0,8.62-2.91,9.41,9.41,0,0,0,0-14.26,12.48,12.48,0,0,0-8.62-2.92h-5.47Z"/><path class="cls-1" d="M352.47,41.54a7.05,7.05,0,0,1,2.76-5.64,11.51,11.51,0,0,1,7.58-2.29,28.62,28.62,0,0,1,3.73.24,24.05,24.05,0,0,1,2.69.47l.89.21V33a6.76,6.76,0,0,0-6.69-6.69,7.38,7.38,0,0,0-3.73,1.07c-.46.3-.88.6-1.26.89a6.83,6.83,0,0,0-.83.75l-.27.32-2.73-2.14.34-.49a12.47,12.47,0,0,1,1-1.1,10.41,10.41,0,0,1,1.72-1.38,10.84,10.84,0,0,1,2.5-1.08,10.66,10.66,0,0,1,3.25-.49A10.24,10.24,0,0,1,373.77,33V48.23h-3.65V44.58h-.3c-.08.13-.19.31-.34.53a15.12,15.12,0,0,1-1,1.16,11.5,11.5,0,0,1-1.65,1.48,9.28,9.28,0,0,1-2.3,1.18,8.42,8.42,0,0,1-3,.52A9.4,9.4,0,0,1,355,47.13,7.28,7.28,0,0,1,352.47,41.54Zm3.95,0a3.75,3.75,0,0,0,1.47,3.08,6.82,6.82,0,0,0,4.32,1.17,7.79,7.79,0,0,0,5.53-2.25,6.83,6.83,0,0,0,2.38-5.06v-.59a43,43,0,0,0-7.31-.62A8.15,8.15,0,0,0,358,38.42,3.71,3.71,0,0,0,356.42,41.54Z"/><path class="cls-1" d="M386.85,48.23V23.89h3.66v3.52h.29c.08-.14.19-.31.33-.52a10.85,10.85,0,0,1,.92-1.13,11.4,11.4,0,0,1,1.52-1.44,8.53,8.53,0,0,1,2-1.14,6.5,6.5,0,0,1,2.51-.5,6.39,6.39,0,0,1,1.37.15,5.78,5.78,0,0,1,1,.29l.33.14-.93,3.52a19.81,19.81,0,0,0-2.43-.15,7.26,7.26,0,0,0-7,7V48.23Z"/><path class="cls-1" d="M410.27,48.23V23.89h3.65v3.52h.3c.08-.14.19-.31.33-.52a10.85,10.85,0,0,1,.92-1.13A11.4,11.4,0,0,1,417,24.32a8.53,8.53,0,0,1,2-1.14,6.5,6.5,0,0,1,2.51-.5,6.39,6.39,0,0,1,1.37.15,5.78,5.78,0,0,1,1,.29l.32.14-.92,3.52a19.81,19.81,0,0,0-2.43-.15,7.27,7.27,0,0,0-7,7V48.23Z"/><path class="cls-1" d="M433.05,42.72a13.26,13.26,0,0,1,0-13.34,13.7,13.7,0,0,1,4.74-4.91,11.77,11.77,0,0,1,12.48,0A13.7,13.7,0,0,1,455,29.38a13.32,13.32,0,0,1,0,13.34,13.81,13.81,0,0,1-4.74,4.92,11.66,11.66,0,0,1-12.48,0A13.81,13.81,0,0,1,433.05,42.72Zm4.81-13.55a9.7,9.7,0,0,0-2.66,6.88,9.76,9.76,0,0,0,2.66,6.89,8.09,8.09,0,0,0,12.33,0,9.71,9.71,0,0,0,2.66-6.89,9.65,9.65,0,0,0-2.66-6.88,8.11,8.11,0,0,0-12.33,0Z"/><path class="cls-1" d="M465,27.55V23.89h4.28V14.77h3.65v9.12h6.69v3.66h-6.69V41.22a4.75,4.75,0,0,0,1.16,3.3,3.65,3.65,0,0,0,2.8,1.27,3.93,3.93,0,0,0,1.44-.29,5.69,5.69,0,0,0,1.17-.6l.42-.32,1.51,3.06c-.18.14-.42.3-.74.5a11.58,11.58,0,0,1-1.75.8,6.44,6.44,0,0,1-2.35.51,6.87,6.87,0,0,1-5.28-2.21,8.6,8.6,0,0,1-2-6V27.55Z"/><path class="cls-1" d="M488.43,27.55V23.89h4.28V14.77h3.65v9.12h6.69v3.66h-6.69V41.22a4.75,4.75,0,0,0,1.16,3.3,3.63,3.63,0,0,0,2.79,1.27,3.85,3.85,0,0,0,1.44-.29,5.55,5.55,0,0,0,1.18-.6l.41-.32,1.52,3.06c-.18.14-.43.3-.74.5a11.83,11.83,0,0,1-1.76.8,6.35,6.35,0,0,1-2.34.51,6.87,6.87,0,0,1-5.28-2.21,8.55,8.55,0,0,1-2-6V27.55Z"/><path class="cls-1" d="M512.47,41.54a7.05,7.05,0,0,1,2.76-5.64,11.51,11.51,0,0,1,7.58-2.29,28.62,28.62,0,0,1,3.73.24,24.05,24.05,0,0,1,2.69.47l.89.21V33a6.76,6.76,0,0,0-6.69-6.69,7.38,7.38,0,0,0-3.73,1.07c-.46.3-.88.6-1.26.89a7.7,7.7,0,0,0-.83.75l-.27.32-2.73-2.14.34-.49a12.47,12.47,0,0,1,1-1.1,9.21,9.21,0,0,1,4.22-2.46,10.66,10.66,0,0,1,3.25-.49A10.24,10.24,0,0,1,533.77,33V48.23h-3.65V44.58h-.3c-.08.13-.19.31-.34.53a13,13,0,0,1-1,1.16,11,11,0,0,1-1.65,1.48,9.28,9.28,0,0,1-2.3,1.18,8.42,8.42,0,0,1-3,.52A9.36,9.36,0,0,1,515,47.13,7.26,7.26,0,0,1,512.47,41.54Zm3.95,0a3.75,3.75,0,0,0,1.47,3.08,6.84,6.84,0,0,0,4.33,1.17,7.77,7.77,0,0,0,5.52-2.25,6.83,6.83,0,0,0,2.38-5.06v-.59a43,43,0,0,0-7.31-.62A8.15,8.15,0,0,0,518,38.42,3.71,3.71,0,0,0,516.42,41.54Z"/><path class="cls-2" d="M158.54,116l1.52-1.36a2.63,2.63,0,0,0,.2.23c.09.1.27.28.54.53a7.33,7.33,0,0,0,.85.67,5.22,5.22,0,0,0,1.06.53,3.55,3.55,0,0,0,1.25.24,3.62,3.62,0,0,0,2.33-.71,2.11,2.11,0,0,0,.87-1.65,1.39,1.39,0,0,0-.43-1,3.51,3.51,0,0,0-1.11-.73c-.46-.19-1-.38-1.51-.56s-1.11-.39-1.66-.62a8.68,8.68,0,0,1-1.52-.79,3.46,3.46,0,0,1-1.12-1.19,3.41,3.41,0,0,1-.43-1.7,3.44,3.44,0,0,1,1.36-2.73,5.26,5.26,0,0,1,3.55-1.15,6.25,6.25,0,0,1,1.74.24,5.14,5.14,0,0,1,1.39.59,10.69,10.69,0,0,1,1,.7,4.42,4.42,0,0,1,.61.58l.2.25-1.52,1.35a1.51,1.51,0,0,1-.18-.18,4.53,4.53,0,0,0-.47-.4,5.85,5.85,0,0,0-.74-.52,5.51,5.51,0,0,0-.93-.4,3.38,3.38,0,0,0-1.07-.18,3.27,3.27,0,0,0-2,.52,1.6,1.6,0,0,0-.69,1.33,1.39,1.39,0,0,0,.43,1,3.3,3.3,0,0,0,1.11.73c.46.19,1,.38,1.52.56s1.1.39,1.66.62a9.48,9.48,0,0,1,1.52.8,3.5,3.5,0,0,1,1.11,1.18,3.34,3.34,0,0,1,.43,1.71,4,4,0,0,1-1.47,3.12,5.79,5.79,0,0,1-3.93,1.27,6.22,6.22,0,0,1-1.92-.3,5.59,5.59,0,0,1-1.53-.72,10.16,10.16,0,0,1-1.08-.84,5.25,5.25,0,0,1-.68-.72Z"/><path class="cls-2" d="M188.76,106.72v-2h2.38V99.61h2v5.07h3.72v2h-3.72v7.59a2.65,2.65,0,0,0,.65,1.84,2,2,0,0,0,1.55.71,2.21,2.21,0,0,0,.8-.17,3,3,0,0,0,.65-.33l.24-.18.84,1.7c-.1.08-.24.17-.41.28a7.06,7.06,0,0,1-1,.45,3.51,3.51,0,0,1-1.3.28,3.83,3.83,0,0,1-2.94-1.23,4.78,4.78,0,0,1-1.13-3.35v-7.59Z"/><path class="cls-2" d="M218.67,113.14v-8.46h2v8.46a3.56,3.56,0,0,0,1.09,2.62,3.61,3.61,0,0,0,2.62,1.1,4.3,4.3,0,0,0,3.07-1.26,3.76,3.76,0,0,0,1.33-2.81v-8.11h2v13.53h-2v-2h-.17a2.94,2.94,0,0,1-.18.3,6.29,6.29,0,0,1-.55.64,6.44,6.44,0,0,1-.91.83,5.17,5.17,0,0,1-1.27.65,4.86,4.86,0,0,1-1.65.29,5.09,5.09,0,0,1-3.8-1.69A5.63,5.63,0,0,1,218.67,113.14Z"/><path class="cls-2" d="M252.28,111.44a8,8,0,0,1,.56-2.94,7.15,7.15,0,0,1,3.51-3.92,5.29,5.29,0,0,1,2.36-.57,5.65,5.65,0,0,1,1.8.28,4.93,4.93,0,0,1,1.4.67,11.4,11.4,0,0,1,.95.8,4,4,0,0,1,.59.68l.17.28h.16V95.55h2v22.66h-2v-2h-.16l-.19.3a7.56,7.56,0,0,1-.57.64,6.21,6.21,0,0,1-.95.83,5.48,5.48,0,0,1-1.39.65,5.77,5.77,0,0,1-1.81.29,5.49,5.49,0,0,1-3.08-1,7.13,7.13,0,0,1-2.41-2.7A7.85,7.85,0,0,1,252.28,111.44Zm3.57-3.87a6.17,6.17,0,0,0,0,7.75,4.17,4.17,0,0,0,3.21,1.54,4.8,4.8,0,0,0,3.35-1.25,3.75,3.75,0,0,0,1.37-2.82v-2.7a3.71,3.71,0,0,0-1.37-2.81,4.79,4.79,0,0,0-3.35-1.24A4.19,4.19,0,0,0,255.85,107.57Z"/><path class="cls-2" d="M288.69,98.84a1.24,1.24,0,0,1,0-1.86,1.31,1.31,0,0,1,.94-.42,1.32,1.32,0,0,1,.93,2.28,1.26,1.26,0,0,1-.93.43A1.29,1.29,0,0,1,288.69,98.84Zm-.09,19.37V104.68h2v13.53Z"/><path class="cls-2" d="M312.74,115.15a7.38,7.38,0,0,1,0-7.42,7.55,7.55,0,0,1,2.63-2.72,6.52,6.52,0,0,1,6.94,0,7.57,7.57,0,0,1,2.64,2.72,7.38,7.38,0,0,1,0,7.42,7.68,7.68,0,0,1-2.64,2.73,6.47,6.47,0,0,1-6.94,0A7.66,7.66,0,0,1,312.74,115.15Zm2.68-7.53a5.68,5.68,0,0,0,0,7.65,4.48,4.48,0,0,0,6.85,0,5.68,5.68,0,0,0,0-7.65,4.5,4.5,0,0,0-6.85,0Z"/><path class="cls-2" d="M371.2,118.21V95.55h2v22.66Z"/><path class="cls-2" d="M396,115.15a7.25,7.25,0,0,1-1-3.71,7.34,7.34,0,0,1,1-3.71,7.55,7.55,0,0,1,2.6-2.72,6.11,6.11,0,0,1,6.7,0,7.55,7.55,0,0,1,2.6,2.72,7.34,7.34,0,0,1,1,3.71l-1,1H397.21a5,5,0,0,0,1.64,3.11,4.66,4.66,0,0,0,3.27,1.29,4.79,4.79,0,0,0,1.7-.3,4.3,4.3,0,0,0,1.3-.72A8.77,8.77,0,0,0,406,115a3.47,3.47,0,0,0,.52-.72l.16-.3,1.7,1a3.68,3.68,0,0,1-.2.42,9.22,9.22,0,0,1-.69.94,7.88,7.88,0,0,1-1.19,1.19,7.24,7.24,0,0,1-4.17,1.35,6.51,6.51,0,0,1-3.47-1A7.68,7.68,0,0,1,396,115.15Zm1.2-4.72h9.46a5.13,5.13,0,0,0-1.61-3.1,4.41,4.41,0,0,0-6.23,0A5.09,5.09,0,0,0,397.21,110.43Z"/><path class="cls-2" d="M428,122.77a3.78,3.78,0,0,1,.28-1.45,4,4,0,0,1,.68-1.15,7.36,7.36,0,0,1,.79-.79,5,5,0,0,1,.68-.51l.28-.15v-.18l-.14-.08a2.77,2.77,0,0,1-.33-.25,2.08,2.08,0,0,1-.41-.43,2.36,2.36,0,0,1-.33-.62,2.19,2.19,0,0,1-.14-.81,2.34,2.34,0,0,1,.33-1.23,2.59,2.59,0,0,1,.67-.76l.35-.21V114a1.44,1.44,0,0,1-.21-.15,5.13,5.13,0,0,1-.44-.48,5.08,5.08,0,0,1-1.22-3.26,5,5,0,0,1,1.68-3.87,6.31,6.31,0,0,1,4.42-1.54h6.26v2h-1.7v.16a.66.66,0,0,1,.16.12,3.39,3.39,0,0,1,.37.38,4.61,4.61,0,0,1,.46.63,4.41,4.41,0,0,1,.36.9,4.21,4.21,0,0,1,.17,1.18,5.06,5.06,0,0,1-1.67,3.87,6.22,6.22,0,0,1-4.41,1.54,7.16,7.16,0,0,1-1.15-.08,5.2,5.2,0,0,1-.8-.16l-.25-.09-.13,0a1.62,1.62,0,0,0-.28.15,2.31,2.31,0,0,0-.36.25,1.41,1.41,0,0,0-.29.39,1.19,1.19,0,0,0-.13.53,1.12,1.12,0,0,0,.3.78,1.67,1.67,0,0,0,.59.46l.3.11a7.92,7.92,0,0,1,2.2-.34,7.72,7.72,0,0,1,5,1.54,4.54,4.54,0,0,1,0,7.39,8.94,8.94,0,0,1-10.09,0A4.65,4.65,0,0,1,428,122.77Zm3.42-2.28a2.75,2.75,0,0,0,0,4.57,7.13,7.13,0,0,0,7,0,2.75,2.75,0,0,0,0-4.57,7.19,7.19,0,0,0-7,0Zm.7-12.81a3.23,3.23,0,0,0,0,4.82,4.57,4.57,0,0,0,5.63,0,3.25,3.25,0,0,0,0-4.82,4.61,4.61,0,0,0-5.63,0Z"/><path class="cls-2" d="M461.59,114.5a3.93,3.93,0,0,1,1.53-3.14,6.41,6.41,0,0,1,4.21-1.27,15.8,15.8,0,0,1,2.08.13,12,12,0,0,1,1.49.26l.5.12v-.85a3.76,3.76,0,0,0-3.72-3.71,4,4,0,0,0-1.12.17,4.22,4.22,0,0,0-.95.42,8.48,8.48,0,0,0-.7.5,3.68,3.68,0,0,0-.47.41l-.14.18-1.52-1.19.19-.27a6.51,6.51,0,0,1,.56-.61,5.5,5.5,0,0,1,1-.77,5.67,5.67,0,0,1,1.38-.6,6.06,6.06,0,0,1,1.81-.27,5.69,5.69,0,0,1,5.75,5.74v8.46h-2v-2h-.17a2,2,0,0,1-.19.3,7.25,7.25,0,0,1-.54.64,6,6,0,0,1-.92.83,5.25,5.25,0,0,1-1.28.65,4.76,4.76,0,0,1-1.64.29A5.2,5.2,0,0,1,463,117.6,4,4,0,0,1,461.59,114.5Zm2.19,0a2.11,2.11,0,0,0,.82,1.71,3.83,3.83,0,0,0,2.4.65,4.33,4.33,0,0,0,3.08-1.26,3.79,3.79,0,0,0,1.32-2.81v-.33a24.3,24.3,0,0,0-4.07-.34,4.51,4.51,0,0,0-2.68.64A2.05,2.05,0,0,0,463.78,114.5Z"/><path class="cls-2" d="M496.22,118.21V95.55h2v22.66Z"/><path class="cls-2" d="M521,115.15a7.45,7.45,0,0,1,0-7.42,7.52,7.52,0,0,1,2.59-2.72,6.13,6.13,0,0,1,6.71,0,7.52,7.52,0,0,1,2.59,2.72,7.34,7.34,0,0,1,1,3.71l-1,1H522.23a5.08,5.08,0,0,0,1.65,3.11,4.64,4.64,0,0,0,3.26,1.29,4.88,4.88,0,0,0,1.71-.3,4.42,4.42,0,0,0,1.3-.72A8.62,8.62,0,0,0,531,115a3.47,3.47,0,0,0,.52-.72l.17-.3,1.7,1a2.7,2.7,0,0,1-.21.42,8.61,8.61,0,0,1-.68.94,8.43,8.43,0,0,1-1.2,1.19,7.24,7.24,0,0,1-4.17,1.35,6.53,6.53,0,0,1-3.47-1A7.68,7.68,0,0,1,521,115.15Zm1.2-4.72h9.47a5.18,5.18,0,0,0-1.61-3.1,4.42,4.42,0,0,0-6.24,0A5.19,5.19,0,0,0,522.23,110.43Z"/><rect class="cls-2" x="159.01" y="73.18" width="374.96" height="1.31"/><path class="cls-2" d="M26.34,90.22V36.62h5.2V85h23.2v5.2Z"/><path class="cls-2" d="M69.13,90.22V36.62H81.51q9.38,0,15.3,5.36a17.35,17.35,0,0,1,0,26.09q-5.93,5.36-15.3,5.35H74.32v16.8Zm5.19-22h7.19q7,0,11.33-3.83a12.37,12.37,0,0,0,0-18.75q-4.31-3.82-11.33-3.83H74.32Z"/></g></g></svg>